<?xml version="1.0" encoding="utf-8" ?>
<svg xmlns="http://www.w3.org/2000/svg" xmlns:xlink="http://www.w3.org/1999/xlink" width="1024" height="1024">
	<path fill="#FEFEFE" d="M461.343 163.139C471.037 162.54 480.935 163.095 490.656 163.037L513.094 162.895C516.778 162.887 521.032 162.496 524.626 163.364C529.896 164.637 536.233 164.565 541.699 164.953C543.214 165.061 544.657 165.564 546.156 165.783L557.5 167.019C564.737 168.081 572.042 171.127 579.231 171.817L580.456 171.927C583.092 172.288 585.822 173.339 588.377 174.105L603.371 178.69L630.822 187.347C634.812 188.815 638.54 190.918 642.5 192.438C662.862 200.254 682.801 210.528 701.386 221.948L716.326 232.159C728.641 240.424 741.703 249.196 751.032 260.942C755.603 266.699 759.274 274.017 761.629 280.979C763.1 285.325 764.325 289.724 765.369 294.19C765.513 294.809 766.318 299.116 766.521 299.293C766.837 299.569 769.264 299.992 769.817 300.139L778.834 302.925C791.537 307.306 804.778 311.937 816.509 318.484C824.802 323.111 832.521 328.904 839.75 334.999C844.177 338.731 848.56 342.345 852.196 346.904C855.083 350.524 857.173 354.301 859.427 358.295C864.84 367.89 868.881 377.179 871.688 387.864C873.046 393.032 874.37 399.412 873.758 404.75C873.256 409.124 873.683 413.657 873.466 418.063C873.122 425.036 871.365 432.991 869.263 439.673C867.651 444.796 865.295 449.159 863.097 454C859.81 461.238 856.346 468.636 851.83 475.219C847.69 481.252 842.654 486.051 837.648 491.284L827.917 501.979C825.063 505.046 820.823 511.31 817.126 512.987C815.571 513.692 814.288 513.501 812.75 512.931C811.964 512.142 810.973 511.241 811.011 510C811.119 506.556 814.294 502.693 815.75 499.684C819.57 491.788 821.186 479.187 820.368 470.5C820.188 468.582 819.523 466.78 819.146 464.904C817.894 458.682 816.044 453.112 813.579 447.265C809.733 446.2 805.853 444.926 801.909 444.29C796.831 443.471 791.399 443.516 786.25 442.975L763.464 440.196C756.121 439.641 748.539 440.049 741.166 439.999C738.014 439.977 734.444 439.215 731.375 439.675C722.863 440.948 713.577 440.016 705.13 441.808L702.825 442.291C684.991 446.089 667.915 453.388 657.716 469.3C654.915 473.67 652.13 478.24 650.142 483.042C648.138 487.885 647.105 493.298 646.084 498.428C644.723 505.262 642.719 514.064 644.436 521C645.201 524.092 644.725 527.013 645.198 530.103C645.886 534.608 647.091 539.044 648.014 543.5C649.361 550.008 650.32 556.732 652.265 563.094C659.208 585.809 671.528 607.254 685.25 626.474C688.423 630.918 691.462 635.814 694.955 640L717.678 666.319L735.778 686.267C739.545 690.458 743.176 695.061 747.248 698.941C753.309 704.716 759.364 710.891 765.958 716.062C769.698 718.996 773.642 721.48 777.55 724.171C779.712 725.66 782.026 726.943 783.381 729.25C782.309 735 764.121 750.267 758.931 754.116C754.392 751.022 749.792 747.871 745.5 744.438L730.69 732.409C727.52 729.77 723.329 725.63 719.542 724.03C718.938 723.774 716.679 724.038 715.946 724.04L704.106 723.98C699.363 723.787 693.905 723.354 689.25 722.537L643.75 718.114C650.638 725.916 657.905 733.848 665.452 741.009C670.336 745.644 676.136 749.593 681.303 753.925C683.235 755.545 684.885 757.521 686.855 759.085C689.776 761.404 693.025 763.295 696 765.519C706.224 773.163 717.033 780.393 728.343 786.38C702.203 808.488 673.008 827.85 642.151 842.667C637.381 844.957 631.562 848.367 626.284 848.944C624.6 849.128 623.887 848.856 622.621 847.761L621.899 847.126C620.924 847.267 621.227 847.122 620.478 847.558C615.039 850.716 608.149 853.361 602.25 855.714C600.177 856.541 596.407 857.914 594.188 856.788C593.756 856.569 592.995 856.039 592.5 856.035C591.117 856.024 586.674 858.398 585 858.953C580.945 860.299 576.521 861.498 572.301 862.107L542.389 868.215C537.631 869.297 532.494 870.451 527.641 870.891C521.419 871.457 514.844 871.065 508.588 871.053L483.309 870.455L442.75 866.083C436.442 865.131 429.825 864.926 423.594 863.798C419.902 863.129 416.211 861.971 412.536 861.15L392.774 856.648C382.83 853.917 373.187 850.361 363.505 846.855L340.614 838.644C335.268 836.479 330.135 833.775 324.932 831.286C310.25 824.261 296.385 817.005 282.629 808.25C277.05 804.7 271.982 800.514 266.682 796.589C257.878 790.07 249.106 783.564 240.847 776.345C226.242 763.577 212.41 747.778 201.226 731.918C197.124 726.101 193.46 719.929 189.888 713.775C188.106 710.705 186.52 707.17 184.366 704.357C182.195 701.522 179.116 699.084 176.56 696.584C168.771 688.966 160.366 679.406 158.077 668.41L156.75 662.28C155.337 655.256 155.895 647.374 156.415 640.25L158.193 617.75C158.362 615.782 159.583 610.844 159.081 609.189C158.933 608.702 157.887 607.524 157.546 607.053L152.525 600.556C143.521 589.243 138.223 574.958 139.302 560.373C140.257 547.462 143.099 534.733 146.473 522.25L151.811 503.877C152.397 501.969 154.033 498.575 154.058 496.742C154.06 496.615 153.036 495.174 152.938 495.022L147.83 486.658C144.549 480.642 142.476 473.82 141.838 467C141.399 462.296 141.645 457.599 142.776 452.994C145.995 439.883 154.269 429.156 162.838 419.002C164.552 416.972 167.838 414.364 169.062 412.224C169.533 411.401 168.959 405.502 168.974 403.969C169.08 393.788 169.198 383.16 171.354 373.183C178.7 339.192 211.025 318.209 234.38 295.37L231.75 293.922C229.961 292.847 228.536 291.867 228.125 289.688C227.804 287.99 229.879 285.011 230.821 283.527C233.895 278.684 237.733 274.374 241.543 270.106C250.469 260.107 260.219 251.304 271.098 243.438L281.5 236.431C299.529 223.174 316.69 209.754 338.241 202.564C345.591 200.112 353.741 197.62 361.5 197.108C365.532 196.842 369.794 197.471 373.744 196.553C375.829 196.068 377.683 196.225 379.75 195.971C381.428 195.765 383.059 195.251 384.75 195.08C389.313 194.618 394.032 194.965 398.618 194.844C401.239 194.774 403.825 194.067 406.438 194.404C408.882 194.719 411.322 194.421 413.785 194.548L440.426 194.899C443.927 194.843 447.63 194.249 451.095 194.666C453.778 194.989 456.641 194.586 459.253 195.152C465.049 196.407 471.61 197.459 477.511 197.819C482.937 198.15 488.793 199.856 494.177 200.91L517.331 206.228C529.081 209.084 540.754 211.619 552.25 215.517L565.032 220.398C570.674 222.482 576.542 224.316 582.023 226.795C599.623 234.755 616.712 244.786 635.07 250.868C629.248 243.602 620.629 240.148 612.623 236.051L592.96 226.25C588.378 224.245 583.572 222.75 578.877 221.049L550.029 211.149C546.493 210.028 543.106 208.387 539.5 207.484C533.069 205.874 526.514 205.034 520 203.951C514.994 203.118 510.144 201.299 505.218 200.104C500.732 199.015 496.015 198.203 491.764 196.374C480.578 191.562 467.996 190.365 456 188.992L424.25 185.111C416.142 184.3 407.135 184.848 399.347 182.048C396.986 181.199 396.28 180.48 395.231 178.286C395.405 177.766 395.614 176.968 395.941 176.5C397.883 173.723 420.585 168.265 425.394 167.494C430.867 166.616 436.622 166.623 441.997 165.584L460.659 163.3L461.343 163.139ZM738.663 306.447C735.827 313.49 732.238 318.82 727.917 325.015C738.258 322.468 750.466 321.88 760.995 323.825L763.183 324.077C766.752 324.372 770.677 325.464 773.462 327.75C774.13 329.51 774.402 330.224 773.671 332.091C772.799 334.319 766.818 336.216 764.544 337.642C761.482 339.562 758.351 341.494 755.702 343.972C750.67 348.676 746.455 354.848 742.496 360.469C741.327 362.129 739.926 364.633 737.75 365.048C736.661 365.255 735.829 365.068 735.008 364.354C732.652 362.306 731.604 357.093 730.551 354.191C727.859 346.768 725.592 338.945 720.72 332.619C716.098 336.036 712.456 340.508 708.385 344.523C706.314 346.566 703.818 348.197 701.668 350.172C698.744 352.857 696.11 355.878 693.131 358.497C686.876 363.996 678.865 367.877 671.623 371.91C660.897 377.882 650.313 384.813 638.257 387.658C651.549 390.79 665.093 391.882 678.5 393.932C684.243 394.811 690.446 394.402 696.094 395.796L759.644 407.576C765.714 408.767 771.771 410.848 777.625 412.831C792.303 417.805 804.176 423.297 815.254 434.414C817.404 436.571 819.697 438.694 821.378 441.25C824.518 446.026 826.077 451.968 827.739 457.395C828.511 459.918 829.66 462.752 829.947 465.369C830.625 471.541 830.111 478.358 830.021 484.587C834.613 478.735 839.577 472.544 843.58 466.292C845.728 462.936 847.436 459.111 849.189 455.531C853.636 446.449 856.956 438.118 859.395 428.264C860.419 424.127 861.595 419.843 861.869 415.575C862.349 408.112 861.356 398.914 860.405 391.494C858.938 380.039 853.793 371.194 847.741 361.658C842.599 353.558 837.047 345.376 829.25 339.532C825.25 336.533 821.204 333.098 817 330.433C802.51 321.247 785.771 315.381 769.263 311.072C764.849 309.92 760.394 308.278 755.887 307.585C750.111 306.697 744.452 306.919 738.663 306.447ZM472.01 354.785C464.1 355.298 456.162 354.982 448.25 355.715C444.374 356.074 440.61 357.175 436.784 357.853C429.755 359.098 422.465 359.857 415.541 361.597C400.342 365.417 385.769 371.23 371.355 377.328C367.755 378.851 363.897 380.03 360.401 381.75C352.837 385.471 346.065 390.338 338.929 394.75L320.915 405.739C313.615 410.66 306.172 416.678 299.509 422.406C295.028 426.258 290.957 430.69 286.756 434.848L271.508 449.96C267.191 454.504 262.292 458.667 258.25 463.448C256.691 465.293 255.652 467.679 254.576 469.834C256.256 484.888 260.505 500.65 265.66 514.874C268.445 522.558 272.324 529.959 275.47 537.5L285.559 561.907C287.104 565.236 289.152 568.274 290.722 571.57C293.191 576.752 295.392 581.837 298.242 586.841L301.838 564.26C302.031 560.94 302.676 557.932 303.111 554.666C305.736 534.981 313.161 516.634 319.878 498.094C322.916 489.709 327.836 481.024 332.33 473.341C337.408 464.66 342.914 455.856 349.328 448.101C362.856 431.746 378.998 418.637 396.547 406.912C408.792 398.73 421.588 391.235 434.975 385.052L440.936 382.652C447.487 380.315 453.995 377.771 460.718 375.918L488.724 369.336C491.093 368.778 493.497 368.897 495.911 368.788L506.348 368.049C509.54 367.914 512.856 368.071 515.974 367.385C520.792 366.325 526.298 367.102 531.239 366.932C535.133 366.797 539.094 365.984 542.964 365.493C538.166 363.5 532.83 361.627 527.75 360.525C523.273 359.554 518.599 359.264 514.089 358.41C508.309 357.315 502.313 355.771 496.475 355.152C492.19 354.698 487.802 355.099 483.5 354.896C479.569 354.709 475.986 354.281 472.01 354.785ZM418.53 268.269L386 269.047C381.278 269.373 376.891 269.319 372.25 270.392C366.122 271.808 359.74 272.335 353.5 272.986C350.712 273.277 347.928 273.219 345.185 273.876C329.053 277.738 312.407 281.735 296.725 287.148C272.684 295.447 249.062 306.681 228.017 321.013C224.625 323.324 221.53 326.044 218.25 328.506C213.514 332.061 208.525 335.383 204.112 339.354C200.86 342.281 197.998 345.769 195.068 349.015C193.117 351.177 190.897 353.306 189.244 355.701C186.079 360.287 184.726 365.452 182.936 370.625C181.556 374.61 179.865 378.337 179.126 382.525C177.788 390.11 177.324 397.537 176.925 405.247C182.384 399.431 188.499 394.537 194.389 389.194C205.78 378.861 217.23 368.707 229.7 359.639C235.03 355.763 241.019 352.427 246.626 348.963L283.28 327.833C287.174 325.805 291.385 324.235 295.354 322.326C314.633 313.31 334.642 306.554 355 300.464L373.256 294.373C381.863 291.886 390.666 290.44 399.482 288.936C403.646 288.225 407.746 286.969 411.902 286.353C424.676 284.46 437.909 284.169 450.75 284.979C459.349 285.521 468.16 284.891 476.75 286.091C480.723 286.646 484.723 288.048 488.729 288.703C501.686 290.822 514.026 298.094 525.207 304.587C528.935 306.751 532.275 310.103 535.551 312.891C543.746 319.865 553.592 326.457 564 329.547C566.371 330.251 569.366 331.321 571.83 330.75C569.644 327.967 564.622 325.377 561.769 323.035C556.696 318.87 551.951 314.577 548.05 309.25C542.121 301.154 539.006 290.19 538.09 280.374C538.032 279.753 537.969 276.312 537.744 276.006C537.492 275.664 533.135 274.428 532.439 274.197C529.506 273.226 526.259 273.183 523.198 272.911C514.989 272.179 506.838 272.747 498.622 272.23L477 270.453L445.045 269.194C436.113 268.741 427.528 267.608 418.53 268.269ZM385.206 578.25L384.547 581.949C383.343 587.91 384.075 594.87 384.072 601C384.068 612.7 383.84 624.097 384.996 635.734C385.274 638.534 385.165 641.185 385.665 643.993C386.919 651.023 387.227 658.468 388.65 665.44L391.212 675.539C392.786 682.642 394.165 689.766 396.362 696.707L401.863 711.556C406.193 723.69 410.548 735.528 416.369 747.041C421.225 756.645 426.693 767.482 435.697 773.869C437.825 775.378 440.151 776.376 442.32 777.777C449.305 782.289 456.389 786.857 463.746 790.732L488.085 802.874L504 812.051C511.042 815.768 518.261 818.543 525.588 821.538C529.359 823.079 532.881 824.944 536.766 826.223C541.348 827.731 546.253 827.288 550.75 828.531L551.135 827.853L530.592 810.664C526.762 807.715 523.487 803.898 519.907 800.635C512.604 793.978 504.852 787.088 498.25 779.743C494.133 775.163 490.791 769.888 487.064 765L468.498 740L452.828 714.166C449.936 709.265 447.944 703.642 445.631 698.443C438.48 682.368 431.244 666.409 426.272 649.467C424.307 642.769 422.112 635.995 420.752 629.151L419.245 621.25C419.099 620.516 418.941 618.612 418.577 618.012C417.452 616.158 414.689 614.059 413.1 612.447C407.626 606.892 402.651 601.268 397.961 595.03C393.983 589.739 390.195 583.769 385.883 578.794C385.481 578.33 385.627 578.438 385.206 578.25ZM496.131 678.766L514.405 713.583C525.84 733.749 538.507 753.247 553.672 770.83L572.25 790.991C574.598 793.379 577.378 795.304 579.75 797.655C581.936 799.821 583.794 802.313 586.054 804.409C598.736 816.171 611.87 827.467 625.945 837.569C628.649 837.601 632.538 835.666 635.098 834.657C643.182 831.47 651.142 828.224 658.768 824.044L671.539 817.068C663.936 810.37 655.614 804.622 647.745 798.25C633.082 786.378 618.736 772.903 606.952 758.18C602.246 752.299 598.393 746.218 594.153 740.022L587.08 730.058L575.434 712.402C574.012 710.288 572.341 707.022 570.547 705.302C569.046 703.864 562.722 703.11 560.5 702.518L547.799 698.668C543.559 697.491 539.202 696.646 535.019 695.284C521.682 690.941 509.047 684.221 496.131 678.766ZM429.854 293.27C402.321 294.429 377.131 304.113 352.349 315.338C340.696 320.616 329.163 326.044 318.51 333.193C314.852 335.649 311.559 338.516 308.094 341.217C297.54 349.443 287.612 358.1 278.586 368.04C272.181 375.095 265.868 384.34 261.334 392.73C272.402 382.025 284.57 374.538 297.755 366.75C309.957 359.542 321.975 352.369 334.75 346.175C354.007 336.839 374.421 330.808 395.078 325.542L407.331 322.227C411.212 321.335 415.55 320.483 419.5 319.997C424.66 319.362 429.603 319.467 434.813 318.467C438.015 317.852 441.133 318.054 444.346 317.75C448.859 317.324 453.449 316.57 458 316.499C465.132 316.388 472.191 317.349 479.25 317.946C480.828 318.079 482.426 317.824 484 317.971L499.5 320.029C501.267 320.222 502.898 320.918 504.7 321.047C508.089 321.291 511.843 323.231 515.061 324.346C520.225 326.135 525.113 327.334 530.131 329.668C539.061 334.105 548.314 339.17 556.315 345.121C559.315 347.352 562.156 350.084 564.991 352.537L569.572 356.828C569.893 357.156 571.005 358.515 571.333 358.652C571.987 358.925 579.155 356.733 580.5 356.453C594.484 353.543 608.96 351.834 622.543 347.293C626.899 345.837 631.12 343.593 635.5 342.378C640.251 341.06 644.58 338.892 649.009 336.778L670.126 326.122C681.641 320.137 693.592 314.611 704.189 307.092L682.5 305.969C672.897 304.756 663.677 302.935 654.519 299.743L654.309 300.355C649.304 314.667 638.788 326.849 625.071 333.445C612.804 339.343 598.94 340.724 585.516 341.108C577.992 341.323 571.848 341.787 564.605 339.25L550.268 333.365C545.13 330.939 539.845 327.818 535.25 324.451C530.031 320.627 525.423 316.304 519.959 312.685C506.197 303.57 490.779 297.346 474.347 295.082C468.675 294.3 462.818 294.195 457.104 293.718C448.261 292.979 438.707 292.271 429.854 293.27ZM203.898 554.25C195.419 568.633 189.15 584.741 185.447 601C184.295 606.056 184.008 611.13 182.61 616.133L207.915 638.397C210.712 640.692 213.847 642.554 216.601 644.898L275.531 690.75L292.31 701.838L304.989 710.03L303.97 664.492L289.092 649.675C283.3 643.303 278.305 636.065 272.623 629.558L234.25 588.229L212.815 563.152C211.285 561.468 205.708 554.357 203.898 554.25ZM445.858 326.17C436.548 327.714 427.106 327.736 417.767 329.453C412.547 330.413 407.622 332.044 402.5 333.347L382.379 338.311C375.079 340.449 367.992 343.226 360.848 345.817C345.691 351.313 330.52 357.464 316.427 365.362C308.588 369.755 300.866 375.12 293.325 380.039C284.091 386.061 275.379 392.854 267.23 400.284C263.851 403.365 260.025 406.637 257.434 410.416C256.085 412.383 255.383 413.911 255.018 416.25L252.502 433.688C251.086 440.787 252.022 450.016 252.114 457.304L266.378 440.878C270.986 435.875 276.187 431.314 281.199 426.725L297.002 412.577L310.25 402.558C312.921 400.703 315.909 399.207 318.379 397.072C321.905 395.19 324.975 392.712 328.366 390.619L347.539 379.42C368.348 367.412 391.635 357.988 414.995 352.408C426.651 349.624 438.6 348.855 450.212 346.374C453.194 345.737 456.227 345.913 459.259 345.911L473.708 345.959C480.051 345.99 487.727 345.018 493.859 346.499C496.705 347.187 500.05 346.926 502.981 347.188C507.914 347.628 512.825 348.926 517.689 349.813C520.126 350.257 522.256 349.992 524.742 350.692C528.479 351.743 532.593 352.235 536.422 353.25C541.91 354.704 547.486 357.453 553.058 358.161L558.458 359.271C546.953 349.675 534.051 340.185 519.759 335.203C516.826 334.181 513.734 333.675 510.75 332.853C504.109 331.023 497.373 328.915 490.5 328.035C485.279 327.366 479.978 327.34 474.75 326.885C465.576 326.086 455.791 325.321 446.567 326.105L445.858 326.17ZM313.574 325.75C305.467 327.462 297.935 331.883 290.544 335.481C275.099 343 259.549 351.486 245.25 361.028C224.808 374.668 206.427 390.728 188.501 407.438C178.716 416.56 168.017 426.252 160.665 437.494C156.689 443.574 154.249 449.483 152.429 456.5C151.492 460.114 150.347 463.688 151.292 467.445L151.715 468.693C152.503 470.843 152.941 473.106 153.75 475.255C156.619 482.878 161.551 491.01 167.359 496.764L179.577 513.021C188.354 492.759 196.716 472.593 209.003 454.084L228.75 426.915C231.246 423.766 233.883 420.559 236.635 417.636C240.305 413.739 246.114 408.741 247.996 403.75C250.307 397.622 253.203 391.843 256.172 386.019C258.16 382.119 259.884 378.318 262.451 374.75C264.598 371.767 266.517 368.576 268.83 365.722C277.11 355.506 288.041 345.526 298.156 337.156C300.57 335.159 303.311 333.315 306.033 331.761C308.612 330.288 313.501 328.582 314.51 325.844L313.574 325.75ZM637.927 402.279L596.927 405.459C594.075 405.714 591.22 405.239 588.41 405.867C586.713 406.246 584.943 406.217 583.25 406.651C579.735 407.553 576.127 409.466 572.688 410.728C543.525 421.429 516.453 439.951 498.983 466C494.403 472.829 489.609 480.602 486.281 488.1C484.219 492.744 482.89 497.63 480.649 502.221C487.738 496.464 496.014 492.415 504 488.104C513.624 482.909 523.29 477.511 533.5 473.502L541.732 470.242C544.144 469.408 547.097 468.901 549.25 467.512C550.957 466.411 552.345 464.494 553.75 463.04L559.721 457.33C569.759 447.827 580.829 439.232 593.47 433.474C610.606 424.807 630.742 419.544 649.868 418.071C667.492 416.715 686.106 418.531 703.477 421.169C713.002 422.615 722.476 425.296 732.116 426.11C736.337 426.466 740.822 427.836 745.033 428.579C747.779 429.064 750.538 428.712 753.25 429.102C754.368 429.263 755.39 429.724 756.5 429.898C758.213 430.167 760.03 429.866 761.75 430.101L775.5 431.981C784.142 432.917 793.104 432.689 801.588 434.966C792.837 427.741 782.618 424.297 772 420.962C763.129 418.176 754.481 415.685 745.354 413.802C741.482 413.004 737.609 412.909 733.729 412.25C731.264 411.831 728.93 411.068 726.5 410.555C722.39 409.687 718.073 409.374 713.917 408.674L688.484 404.682C684.1 403.999 679.681 403.085 675.258 402.714C663.09 401.693 650.086 401.474 637.927 402.279ZM432.933 633.813C433.039 637.303 433.173 640.369 434.091 643.75C435.084 647.406 436.775 650.697 438.036 654.25C442.245 666.104 446.404 677.977 451.512 689.5C457.522 703.055 465.391 715.888 473.17 728.47C477.801 735.959 482.49 743.886 488.042 750.723C488.433 751.205 488.731 751.676 489.068 752.192C490.317 754.104 492.32 755.379 493.732 757.165C498.594 763.315 503.122 769.765 508.37 775.631C512.746 780.524 517.662 785.071 522.321 789.704C525.616 792.981 528.839 796.647 532.615 799.36L562.792 823.936C568.034 828.215 573.949 829.691 580.579 830.456L605.351 834.173L544.912 775.527C540.918 771.372 537.708 766.112 534.25 761.501C529.449 755.099 523.971 748.638 519.915 741.75C517.785 738.133 515.118 734.818 512.996 731.182L501.03 710.321L488.953 683.779C487.045 679.384 484.908 675.008 483.269 670.506C471.37 664.019 459.594 656.498 448.986 648.055C443.495 643.684 438.174 638.533 432.933 633.813ZM180.062 627.816C180.036 633.879 179.586 640.369 180.168 646.383C180.516 649.973 181.506 653.444 182.008 657C182.346 659.398 182.258 661.899 182.75 664.267C183.399 667.389 184.843 670.532 185.67 673.656C188.036 682.603 190.614 693.343 197.335 700.142C198.884 701.709 200.559 702.92 202.387 704.134C211.778 710.368 221.195 715.54 231.077 720.891C234.16 722.561 237.119 724.626 240.393 725.915C245.185 727.801 249.891 731.119 254.5 733.524L266.098 738.866C285.14 748.34 304.007 758.853 324.715 764.227C320.731 755.621 316.185 747.019 313.256 737.975L310.27 727.216C309.911 726.025 309.528 724.074 308.842 723.05C307.502 721.048 301.595 718.982 299.25 717.526L269.689 698.274L257.819 689.343L202.75 646.465C195.182 640.4 188.017 633.302 180.062 627.816ZM482.813 380.161C472.141 382.91 461.411 385.304 451 388.986C442.943 391.837 435.053 396.259 427.386 400.052C417.755 404.817 407.864 409.785 398.894 415.713C373.243 432.667 352.255 457.567 336.86 483.969C334.182 488.561 332.192 493.523 330.016 498.361C321.52 517.246 315.775 537.175 311.789 557.459C310.885 562.059 309.531 566.541 309.068 571.25C308.787 574.099 308.19 577.088 308.108 579.924C307.983 584.229 308.331 588.729 307.943 593C307.116 602.09 306.81 611.224 307.849 620.343C308.072 622.301 307.99 624.595 308.429 626.488L308.678 627.345C309.289 625.31 309.743 623.352 310.054 621.249C315.849 600.163 322.933 580.165 332.561 560.5C337.897 549.602 343.96 538.265 350.313 527.936C353.986 521.964 358.798 516.233 361.958 510C362.952 508.037 362.899 505.159 363.343 502.974C369.178 474.206 391.217 448.167 413 429.515C417.57 425.602 421.772 421.68 426.783 418.271C437.278 411.132 447.451 403.44 458.529 397.205L476.818 387.362C481.796 384.922 487.181 382.82 491.966 380.045L482.813 380.161ZM372.574 602.25C367.793 606.684 362.83 611.075 358.545 616C350.597 625.135 344.037 635.103 337.461 645.222C332.512 652.838 327.678 660.108 323.664 668.303C322.626 670.42 322.627 674.024 323.51 676.203L324.109 677.5C327.228 684.67 332.174 691.342 336.891 697.545C338.882 700.164 340.441 703.107 342.536 705.66C345.515 709.29 349.203 712.532 352.546 715.831C355.767 719.01 358.828 722.453 362.187 725.479C368.423 731.097 375.274 735.92 382.228 740.606L400.506 753.337C403.988 755.793 407.686 758.966 411.451 760.904L402.455 739.886C392.503 715.217 383.948 690.683 379.152 664.452C375.346 643.642 373.47 623.411 373.766 602.204L372.574 602.25ZM245.595 481.836L233.958 497.039C226.239 508.026 219.813 520.024 213.312 531.745C211.634 534.771 208.505 538.55 207.575 541.775C211.357 545.893 214.631 550.527 218.728 554.326L285.23 630.663C288.209 633.996 290.962 637.717 294.252 640.728L303.277 650.631C300.722 642.25 298.745 632.124 298.076 623.388C297.695 618.406 297.839 613.209 297.846 608.209C297.848 606.825 298.285 603.926 297.693 602.748C296.387 600.15 294.019 597.757 292.468 595.234L280.546 573.5C274.028 560.649 268.77 547.157 263.618 533.727L250.937 500.031L245.595 481.836ZM204.999 719.596C210.891 728.706 217.503 736.798 224.603 744.971C235.784 757.845 247.13 769.366 260.5 780.009C265.29 783.822 270.563 786.989 275.5 790.589C283.279 796.262 291.128 802.285 299.25 807.454C304.513 810.803 310.134 813.449 315.646 816.335L332.45 825.178C338.425 828.01 344.569 830.196 350.75 832.509C362.865 837.045 374.614 841.966 387.067 845.606L350.048 805.646C345.086 800.352 340.48 793.149 336.62 786.978C335.099 784.546 333.79 781.944 332.475 779.396C332.193 778.852 331.463 777.008 331.085 776.668C329.888 775.593 324.614 774.373 322.909 773.75L299.46 764.495L273.329 751.908L260.765 746.06C242.805 736.65 224.416 725.679 204.999 719.596ZM655.217 449.25C651.044 450.185 646.824 450.864 642.753 452.211C634.836 454.831 627.547 458.689 620.297 462.758C614.427 466.052 608.484 469.179 602.968 473.065C597.869 476.656 593.393 480.871 588.711 484.965L569.845 501.848C566.833 504.714 564.171 508.12 561.281 511.13C555.02 517.652 547.475 523.961 542.642 531.62C541.168 533.957 539.815 536.257 539.091 538.943C541.466 547.234 544.312 554.798 547.502 562.792C552.269 574.737 557.31 587.978 565.567 598.049C570.698 605.447 575.615 613.639 582.3 619.732C580.825 613.636 580.394 608.163 579.75 601.985C575.965 565.669 587.79 527.218 606.606 496.332C610.03 490.711 614.013 485.496 618.123 480.369C623.581 473.562 629.187 466.953 636.391 461.878C639.486 459.698 642.528 457.375 645.797 455.46C649.224 453.453 652.901 451.851 656.25 449.745L656.212 449.172L655.217 449.25ZM389.071 204.211C376.671 205.62 364.259 206.24 351.993 208.75C345.95 209.986 339.514 212.825 333.834 215.186C330.176 216.706 326.407 217.856 322.898 219.75L309.68 228.716L353.622 217.624C355.944 216.851 357.957 217.025 360.31 216.704C368.362 215.607 376.746 215.957 384.679 214.206C393.982 212.154 404.164 212.736 413.648 212.956L435.229 213.06C438.016 213.163 440.729 213.719 443.5 213.867C447.351 214.072 450.931 213.803 454.737 214.681C457.002 215.203 459.883 214.691 462.301 214.908C464.743 215.128 467.009 216.031 469.422 216.412C473.196 217.007 476.932 216.898 480.667 217.831C483.561 218.554 486.58 218.864 489.5 219.516L515.942 226.158C521.902 227.892 527.452 230.425 533.25 232.515C546.637 237.341 559.54 242.328 572.37 248.523L592.952 259.061L618.741 274.171C622.854 276.397 627.371 279.013 631.936 280.128C655.689 291.387 683.173 298.141 709.574 296.932C705.05 292.891 700.961 289.183 695.769 285.985C687.823 281.09 677.306 280.551 668.266 279.203C660.167 277.995 651.751 276.355 644.196 273.114C636.994 270.025 630.464 264.457 623.839 260.306C618.783 257.137 613.457 254.597 608.253 251.711L589.991 241.568C574.846 233.968 558.156 227.119 542.01 221.953C539.067 221.012 535.964 220.668 533.009 219.75C529.407 218.632 526.153 217.012 522.422 216.112C516.864 214.771 511.132 214.195 505.527 213.088C503.153 212.619 500.949 211.622 498.547 211.23C496.109 210.832 493.616 210.796 491.19 210.349C484.607 209.136 478.176 206.807 471.5 205.999C466.28 205.367 460.994 205.374 455.75 205.169L442.92 204.195L416.85 204.37C407.621 204.375 398.303 203.614 389.071 204.211ZM346.785 783.694C350.217 788.436 352.765 793.732 356.379 798.316C370.154 815.784 386.535 831.694 403.5 846.023C406.185 848.291 408.791 851.281 412.484 851.844L413.75 851.983L455.09 859.413C460.505 860.48 466.044 860.497 471.5 860.93C475.685 861.262 479.832 862.262 484 862.678C491.151 863.392 498.662 862.981 505.847 862.966L465.021 839.894C462.075 838.281 459.501 836.021 456.75 834.114C444.627 825.712 432.853 816.214 420.192 808.676C415.221 805.717 409.022 804.13 403.5 802.511L381.348 795.771C369.753 791.788 358.674 786.899 346.785 783.694ZM414.596 221.748C407.159 222.101 399.671 221.594 392.248 222.157C380.44 223.054 368.13 224.274 356.5 226.5L341.723 229.779C337.094 230.729 332.378 231.195 327.811 232.426C315.771 235.672 303.793 240.406 292.25 245.032C287.538 246.921 282.961 248.615 278.54 251.204C270.095 256.151 261.693 263.356 255.178 270.62C250.141 276.235 244.061 281.568 240.103 287.972L265.998 273.279C271.823 270.28 277.806 267.937 283.792 265.346C293.065 261.332 302.389 257.147 311.967 253.833L321.837 250.808C324.661 249.844 327.316 248.573 330.201 247.674C334.265 246.408 338.435 245.763 342.54 244.682C347.37 243.409 352.092 241.536 357 240.537L370.796 238.302L386.53 235.645C387.717 235.438 390.63 235.235 391.61 234.668C402.085 233.271 412.226 233.166 422.75 232.939C433.483 232.708 443.995 232.848 454.703 233.775C456.849 233.96 459.152 233.787 461.25 234.082L476.93 236.868C485.9 238.312 494.875 239.587 503.695 241.785C512.852 244.066 522.436 247.453 531.33 250.626C539.884 253.678 548.128 257.569 556.48 261.128C559.495 262.413 562.293 264.125 565.41 265.155L565.98 265.364C568.456 266.234 570.713 265.94 573.25 266.177L583.503 266.76C574.999 260.297 565.144 255.793 555.537 251.256C528.795 238.629 500.984 229.476 471.5 226.02L448.575 223.585C442.303 223.099 435.725 223.355 429.608 221.826C427.707 221.351 425.907 221.856 424 221.909L414.596 221.748ZM540.486 480.223L515 492.471L489.787 506.785C486.155 508.975 480.714 511.237 478.089 514.628C477.226 515.743 476.672 517.389 476.203 518.727C473.065 527.682 472.903 536.983 471.896 546.25C471.512 549.785 469.791 556.043 471.459 559.235L482.862 577.099C485.771 581.172 488.568 584.888 491.949 588.575C496.576 578.028 502.21 569.251 508.552 559.711C510.995 556.036 513.211 552.291 515.882 548.759C518.679 545.06 521.828 541.691 525.025 538.339C525.835 537.49 528.258 535.52 528.665 534.542C529.225 533.197 528.655 528.697 528.695 527.018C528.833 521.148 529.295 515.668 530.098 509.869C531.571 499.235 537.313 490.203 540.486 480.223ZM594.115 548.75C593.526 550.341 593.05 551.756 592.835 553.439L591.709 559.186L590.839 564.209C590.36 567.476 589.54 570.801 589.189 574.065C588.598 579.552 589.04 585.56 589.053 591.096C589.064 595.468 588.832 599.819 589.723 604.114C590.356 607.162 589.838 609.963 590.801 613.058C591.017 613.75 591.076 614.287 591.149 615C591.469 618.136 592.95 621.136 593.822 624.146C594.934 627.983 595.438 631.883 596.821 635.649L597.047 636.285C598.332 639.764 601.355 642.68 603.914 645.286C607.327 648.761 610.697 652.273 614.6 655.203C632.145 668.374 650.291 680.828 669.5 691.53L685.025 699.32L704.307 709.008L708 710.372L708.105 709.952L677.729 678.507C674.273 675.264 670.181 672.481 666.493 669.49C662.878 666.558 659.457 663.25 656.061 660.061C652.723 656.927 649.833 653.516 646.665 650.237C626.209 629.069 609.638 604.502 600.769 576.27C598.047 567.603 594.772 558.011 594.85 548.844L594.115 548.75ZM412.954 242.212C409.004 242.897 405.005 243.247 401 243.419C398.438 243.53 395.82 243.306 393.315 243.875C389.95 244.639 386.427 244.393 382.992 245.226C378.341 246.355 373.485 246.74 368.78 247.634L339.271 254.559C329.433 257.23 319.551 260.952 310 264.52C305.095 266.352 300.094 267.872 295.268 269.921C284.267 274.591 273.393 280.207 263.05 286.176C256.07 290.203 248.995 294.088 243.541 300.19L259 293.448L276.751 285.435L289.75 280.793L300.25 276.5C304.216 275.066 308.508 274.187 312.579 273.168C322.243 270.748 331.575 267.776 341.38 265.804C355.234 262.919 369.421 262.119 383.373 260.094C386.468 259.645 389.501 260.138 392.609 259.446C399.539 257.904 408.375 258.913 415.5 258.911L439.75 258.899C442.41 259.007 444.873 259.892 447.436 259.962C453.778 260.135 460.186 259.738 466.512 260.152L496.75 262.843C500.144 263.075 503.589 262.508 506.885 262.738C516.3 263.394 525.93 264.671 535.355 264.762C516.307 254.269 494.611 247.162 472.956 244.68C462.975 243.536 452.653 243.523 442.614 243.048L433.09 242.178C428.593 241.897 424.053 242.013 419.55 242.107C417.404 242.152 415.067 242.523 412.954 242.212ZM443.797 536.75C440.651 539.104 436.893 541.376 434.163 544.182C429.881 548.584 428.157 558.577 427.365 564.5C425.531 578.219 425.436 592.613 426.75 606.408C427.179 610.907 427.26 616.003 430.351 619.642C431.502 620.996 432.989 622.119 434.25 623.372C444.57 633.622 455.929 641.408 467.796 649.715L478.59 656.454C476.088 648.619 472.507 640.87 470.349 632.955C468.786 627.223 467.968 621.326 466.897 615.5L461.989 586C461.514 583.028 461.022 579.968 460.92 576.958L460.843 567.746C460.864 566.898 461.187 564.98 460.989 564.229C460.161 561.099 456.407 556.718 454.66 553.853L447.423 541.5C446.565 540.011 445.731 537.745 444.35 536.767L443.797 536.75ZM364.688 524.705C354.302 537.746 346.747 551.717 339.618 566.686C335.235 575.89 330.567 585.137 326.999 594.697C325.059 599.894 323.835 605.088 322.33 610.4C320.594 616.53 318.209 622.739 317.13 629.025C315.576 638.071 314.474 647.303 314.446 656.502C314.437 659.435 314.112 662.648 315.25 665.403L315.924 665.25L319.751 657.353C326.988 643.209 336.062 629.368 345.831 616.842C351.803 609.184 358.042 601.196 364.627 594.055C366.683 591.825 368.963 589.699 371.24 587.694C372.359 586.707 374.248 585.383 374.853 583.994C375.148 583.316 375.086 581.766 375.18 580.978L376.25 572.716L378.205 562.697C372.024 550.088 367.279 538.556 364.688 524.705ZM727.215 306.568C694.424 323.075 663.401 342.86 628.605 355.217C618.67 358.745 608.508 361.172 598.184 363.25C591.921 364.511 585.124 365.059 579.083 367.166L588.463 377.335C589.121 378.169 591.054 381.23 591.826 381.597C592.935 382.123 595.293 382.119 596.593 382.441C601.234 383.593 605.819 384.876 610.231 386.734L610.71 386.524C615.648 384.396 620.887 383.295 625.988 381.669C627.814 381.087 629.461 380.167 631.25 379.52C637.635 377.21 644.096 375.388 650.396 372.75C655.577 370.58 660.384 367.563 665.236 364.775C670.67 361.652 676.196 359.019 681.258 355.22C687.104 350.833 692.205 345.527 697.5 340.519C708.207 330.39 719.935 319.593 727.215 306.568ZM492.774 608.526L486.488 631.478C484.611 641.682 487.283 652.693 491.633 661.923L492.051 662.824C492.576 663.939 493.171 665.198 494.047 666.072C497.761 669.778 504.484 672.094 509.199 674.263C512.965 675.995 516.594 678.039 520.515 679.409L556.885 691.227C558.485 691.609 559.957 691.88 561.6 691.979C558.825 685.11 554.968 679.086 551.722 672.516C548.809 666.619 546.856 659.59 542.817 654.389C539.626 650.279 534.066 646.765 530.028 643.438L520.887 635.178L502.828 618.184C499.511 614.958 496.342 611.472 492.774 608.526ZM537.996 565.002L538.178 575.75C538.308 577.732 538.863 579.636 538.975 581.627C539.197 585.586 538.68 589.925 539.755 593.75C541.463 599.827 541.868 606.078 543.223 612.222C543.885 615.225 545.039 618.061 545.75 621.029L547.75 631.534C548.706 635.794 550.104 639.861 551.466 644C552.219 646.288 552.768 649.033 554.05 651.084C556.496 654.996 560.851 657.475 564.439 660.155C576.126 668.882 588.809 677.436 601.5 684.612L603.711 685.74L608.69 688.584C605.924 682.848 602.563 677.58 599.566 672C597.483 668.121 595.788 663.753 594.1 659.676C592.502 655.814 590.898 651.775 589.645 647.785C588.842 645.228 588.287 641.266 587.074 639.046C585.126 635.48 580.434 632.329 577.675 629.327L570.366 620.59C561.847 610.067 553.605 599.409 547.595 587.185L537.996 565.002ZM647.239 468.25C632.539 475.833 621.354 489.725 613.488 503.989C611.137 508.251 608.626 512.888 607.05 517.5L606.034 521.5C605.502 523.87 604.689 526.208 604.325 528.603C603.88 531.527 603.987 534.433 603.453 537.355C602.197 544.215 604.227 551.797 605.758 558.51C607.106 564.426 607.937 570.64 609.75 576.417C611.855 583.123 615.189 589.818 618.504 596C622.314 603.105 626.054 610.148 630.705 616.761C640.644 630.891 652.403 642.776 664.097 655.396C667.196 658.219 670.124 661.096 674.275 662.173C665.967 653.466 658.452 643.336 651.73 633.357C632.508 604.821 618.939 572.443 619.911 537.475C620.19 527.44 623.443 517.391 626.92 508.07C629.557 500.999 632.443 493.865 636.029 487.218C639.153 481.428 642.999 476.051 646.353 470.392C646.638 469.911 647.454 468.777 647.239 468.25ZM521.118 383.097C512.552 385.123 504.097 386.886 495.772 389.833C483.135 394.306 471.029 401.185 459.645 408.13C454.954 410.991 449.83 412.968 446.85 417.774C440.605 427.848 436.588 441.34 435.12 453.094L458.733 436.331C473.728 425.646 489.512 415.952 505.724 407.233C513.065 403.286 519.98 398.993 528.127 396.721C534.297 395 540.372 392.467 546.5 390.546C551.667 388.926 557.149 388.083 562.443 386.975C549.142 383.183 534.941 382.459 521.118 383.097ZM243.571 425.25C225.03 442.699 213.263 465.828 201.25 487.898C198.055 493.768 193.778 500.588 191.905 506.954C190.416 512.011 187.776 515.751 188.093 521.25L194.911 529.362C196.855 531.215 198.613 533.418 200.687 535.087C205.623 527.302 209.736 518.853 214.342 510.851C217.619 505.157 221.353 500.02 224.885 494.527C230.67 485.531 236.691 476.117 243.907 468.163C243.16 464.606 242.984 461.344 242.687 457.75C242.499 455.471 241.984 453.128 242.073 450.84L242.936 432.75C242.941 431.2 244.114 426.178 243.571 425.25ZM469.765 820.25L468.991 821.016C470.895 824.311 474.899 827.35 477.69 830.018C481.578 833.737 485.143 837.846 489.25 841.32C496.4 847.369 505.306 853.162 513.677 857.311C516.031 858.478 518.167 859.89 520.75 860.563C526.801 862.142 534.179 860.602 540.25 860.017C543.535 859.7 546.43 859.972 549.687 859.176L580.384 854.355L586.787 852.599L586.298 852.365C579.105 848.705 572.262 843.529 565.818 838.663C564.223 837.46 561.379 837.886 559.433 837.693C554.527 837.205 549.618 836.758 544.761 835.893L473.664 820.218C472.282 819.885 471.142 820.04 469.765 820.25ZM634.621 514.08C631.696 524.955 630.729 535.791 630.331 547C630.168 551.592 629.742 556.433 630.303 561.004C632.395 578.046 639.614 596.322 648.004 611.25C650.591 615.853 653.196 620.583 656.139 624.967L664.561 636.297C668.833 642.366 672.877 648.723 677.878 654.25C685.329 662.484 692.763 670.154 701.25 677.358C703.691 679.431 706.517 681.114 709.145 682.935C713.74 686.119 718.358 689.765 723.25 692.468C725.642 693.79 728.301 694.796 730.76 696.042L732.5 696.973L732.75 696.633L706.504 668.685L692.078 651.239C678.666 634.923 665.99 618.109 656.369 599.181C651.678 589.951 647.965 579.822 644.693 570.03C642.622 563.835 640.113 557.737 638.722 551.338C636.73 542.177 635.799 532.118 635.063 522.75C634.837 519.87 635.053 516.937 634.621 514.08ZM595.941 712.25C599.081 715.907 602.409 719.097 605.75 722.544L622.203 739.482C633.033 749.632 644.908 759.168 656.704 768.158L665.5 775.466L688.596 791.465C692.251 793.758 696.344 796.947 700.225 798.661L705.675 793.543L709.617 788.573L683.59 769.253C677.712 764.84 671.785 760.746 666.361 755.729L637.518 726.25C635.194 723.796 633.32 721.141 631.35 718.408C631.143 718.121 630.193 716.552 629.937 716.432C628.757 715.878 624.727 716.147 623.25 716.069C617.63 715.773 612.243 714.653 606.731 713.589C603.661 712.997 599.441 711.472 596.357 712.097L595.941 712.25ZM532.546 418.25C514.062 423.057 496.012 430.235 478.696 438.284C468.356 443.09 457.828 447.731 448.238 453.968C443.54 457.024 439.267 460.671 434.988 464.275C435.331 472.524 435.526 481.642 438.227 489.49C438.924 491.515 439.279 493.677 440.16 495.631L441.989 500.549C455.471 484.665 469.204 468.181 485.5 455.04C501.141 442.427 518.364 431.551 533.643 418.532L533.435 418.172L532.546 418.25ZM426.257 476.422C418.697 483.963 414.102 492.631 409.051 501.928C402.589 513.82 396.736 526.246 392.7 539.193C390.819 545.226 389.885 551.36 388.365 557.449C387.846 559.525 387.679 562.07 388.863 563.954L391.572 567.869L393.947 565.157C397.38 561.762 400.774 558.089 404.473 554.994C407.882 552.143 411.603 549.407 415.266 546.884C416.662 545.922 419.656 544.395 420.69 543.155C422.304 541.221 422.846 536.704 423.813 534.267C425.325 530.452 426.326 526.394 427.947 522.659C429.779 518.44 432.418 514.382 434.726 510.408L434.506 509.847C433.389 506.908 433.049 503.936 432.157 500.962C429.803 493.117 426.97 484.601 426.257 476.422ZM319.283 729.439C321.323 737.022 324.183 744.558 327.506 751.674C329.296 755.507 331.496 759.124 333.2 762.992C335.234 767.611 337.142 770.465 342.019 772.321C361.181 779.614 380.589 786.942 400.405 792.25C402.12 792.709 405.18 794.26 406.792 793.75C405.872 792.694 405.226 792.109 404.08 791.31C401.311 789.382 398.697 786.32 396.273 783.926C388.285 776.034 380.71 767.236 372.121 760.011C368.793 757.212 364.953 755.703 361.094 753.857L345.997 745.937C336.89 740.783 328.472 734.475 319.283 729.439ZM527.795 550.659C523.066 556.24 518.451 561.876 514.432 568C508.283 577.37 503.244 587.615 498.364 597.68L525.412 624.857C529.799 630.378 534.383 635.275 540.303 639.142C534.71 620.159 530.332 600.854 529.033 581.037C528.374 570.974 528.816 560.723 527.795 550.659ZM510.382 172.25C512.483 174.107 518.029 174.153 520.781 174.443L531 176.035C536.451 176.993 541.759 178.612 547.25 179.423C557.681 180.964 568.265 182.51 578.497 185.138C596.894 189.865 615.289 196.005 632.898 203.157L657.5 214.504C672.296 221.247 686.61 229.354 700.059 238.495C704.332 241.399 709.004 244.091 712.916 247.47C727.19 259.804 737.723 273.538 743.571 291.685L744.192 291.536C746.928 290.926 751.071 290.47 753.75 291.453C754.069 289.321 753.301 287.557 752.655 285.551C751.11 280.749 749.335 277.25 746.354 273.133C740.831 265.508 735.098 258.195 728.069 251.893C722.989 247.339 716.872 243.783 711.313 239.849C702.769 233.802 694.178 228.889 685.192 223.597C676.177 218.288 667.179 212.853 657.705 208.379C652.947 206.131 647.829 204.504 643 202.435C626.388 195.317 609.196 189.795 591.783 185.051C578.936 181.551 565.789 178.224 552.586 176.25L536.612 174.501L525.076 172.537C520.629 171.981 514.872 172.001 510.382 172.25ZM560.392 274.736L547.108 275.034C547.868 279.105 548.092 283.216 549.03 287.25C551.433 297.578 557.41 308.357 566.226 314.421C574.839 320.347 583.15 325.944 593.846 327.166C595.334 327.337 596.734 327.882 598.25 327.978C609.943 328.713 621.22 326.427 630.627 319.208C634.198 316.468 636.954 312.552 639.269 308.719C642.135 304.718 643.833 301.51 645.249 296.809L638.785 294.067L638.542 294.562C633.911 303.795 627.14 313.193 617 316.618C610.013 318.978 602.81 320.309 595.5 318.634L594.785 318.478C584.495 316.154 574.493 308.707 568.876 299.84C564.14 292.365 563.093 283.39 563.072 274.75C562.056 274.539 561.411 274.542 560.392 274.736ZM430.642 428.25C419.693 435.291 411.503 443.748 402.826 453.268C391.339 465.872 378.873 480.004 374.735 497.085L374.641 497.538C374.326 498.986 373.813 500.355 373.322 501.75L373.878 501.893L374.75 500.985L426.301 459.858L426.212 459.186C425.181 449.816 428.771 438.351 431.663 429.557C432.006 428.513 432.114 428.964 431.44 428.186L430.642 428.25ZM161.138 505.589L154.751 526.769C153.879 529.531 154.253 532.024 153.786 534.786L150.106 553.43C149.66 556.37 150.109 559.41 149.695 562.377C149.184 566.042 149.252 570.099 150.308 573.637C152.311 580.356 155.392 588.845 160.25 594.027C161.09 592.934 160.914 592.232 161.002 590.899C162.098 585.259 162.204 579.836 162.8 574.177C163.264 569.757 164.218 565.151 165.086 560.783C167.742 547.433 172.662 534.802 176.54 521.812C171.539 516.712 165.056 511.501 161.138 505.589ZM601.874 655.451C603.766 659.21 605.149 663.164 607.082 666.894C611.965 676.316 617.915 685.682 624.483 694C628.62 699.24 632.071 703.907 637.648 707.742L651.123 709.276C654.888 709.999 658.927 709.904 662.757 710.337L688.721 713.119C690.685 713.401 692.544 714.084 694.52 714.383L665.598 700.359C660.766 697.842 656.11 694.659 651.454 691.817L621.018 671.465C614.511 666.627 607.262 661.527 601.874 655.451ZM656.741 426.663C649.717 427.9 642.438 428.115 635.517 429.381C623.049 431.663 612.526 435.643 600.95 440.603C596.474 442.52 591.796 444.042 587.647 446.66C583.557 449.241 580.058 452.642 576.117 455.454L617.127 445.585L651.5 439.648C656.058 438.53 660.638 438.155 665.25 437.426C670.119 436.657 675.101 435.421 680 435.007L696.585 433.184C700.202 432.795 702.937 432.722 706.445 431.448C694.777 429.182 682.684 427.856 670.83 427.074C665.972 426.754 661.657 426.002 656.741 426.663ZM605.815 458.75C597.71 460.16 589.694 462.114 581.805 464.431C579.369 465.146 576.768 465.508 574.386 466.366C566.334 469.264 556.408 474.895 551.366 481.896C549.233 484.858 546.756 488.343 545.177 491.635C542.352 497.528 540.984 505.212 539.94 511.659C539.498 514.391 538.864 517.056 539.103 519.836L540.128 519.25L551.987 505.918C558.501 499.13 565.32 493.067 572.39 486.9L583.581 476.86C586.856 474.157 606.534 460.267 607.185 458.513L605.815 458.75ZM543.511 200.135C551.262 202.892 559.22 204.494 567.047 206.88C577 209.915 586.974 214.01 596.461 218.25C606.125 222.569 616.002 226.415 625.134 231.865C633.664 236.956 642.344 242.703 650.152 248.855C655.908 253.391 661.411 258.916 667.5 262.942C674.214 267.382 681.993 270.554 689.303 273.812L681.122 264.73C677.488 261.044 673.528 257.919 669.633 254.543C664.821 250.372 660.149 246.143 654.956 242.434C647.894 237.389 639.975 233.233 632.366 229.083C627.776 226.579 623.147 223.726 618.345 221.671L609.405 218.144C593.451 211.173 577.7 204.54 560.432 201.75C556.761 201.157 553.255 200.2 549.5 200.104L543.511 200.135ZM184.181 530.899C182.153 535.808 179.98 540.547 178.571 545.688C177.158 550.847 176.531 556.316 175.522 561.57L173.049 573.5C172.414 577.285 172.272 581.17 171.716 584.949C170.736 591.606 168.456 599.836 171.311 606.236C171.781 607.291 172.38 607.855 173.25 608.589C174.001 607.886 173.836 608.291 173.936 607.556L175.445 600.884L197.514 544.901L184.181 530.899ZM580.708 196.25C584.229 199.237 591.393 200.977 595.75 202.672L605.916 207.178L626.911 215.971C638.009 221.112 648.473 228.059 659.2 233.955C671.071 240.479 683.183 247.507 695.441 253.227C701.532 256.069 708.07 258.065 714.278 260.681C699.776 249.939 685.593 238.957 669.919 229.892C658.64 223.368 645.922 217.891 633.766 213.237C628.218 211.113 622.895 208.44 617.25 206.522L602.858 202.18L588.197 197.542C585.89 196.916 583.094 196.081 580.708 196.25ZM312.991 680.666C313.071 688.602 314.012 696.65 315 704.5C315.484 708.341 315.208 715.702 317.827 718.742C319.32 720.476 322.616 722.001 324.585 723.25L344.867 735.472C349.479 737.999 354.359 740.059 358.821 742.817L312.991 680.666ZM599.422 730.25C603.824 736.692 608.689 742.232 613.794 748.096C615.735 750.326 617.502 752.795 619.534 754.925L629.448 764.75C645.18 781.644 662.503 797.404 681.112 811.035L686.028 808.041L689.644 805.695L634.598 762.687C629.382 758.552 624.718 753.414 620.037 748.685L607.587 736.75C606.073 735.276 602.474 730.644 600.704 730.169C600.29 730.058 599.849 730.223 599.422 730.25ZM452.092 173.713C449.892 173.961 447.71 174.151 445.571 174.741C443.061 175.433 440.481 175.622 438.088 176.747C441.642 178.041 445.003 178.257 448.679 178.904L473.536 183.065L496.794 186.274C499.355 186.542 501.89 187.205 504.454 187.37C512.063 187.86 519.808 187.763 527.367 188.923L541.524 189.015C531.994 184.746 521.855 181.52 511.611 179.382C508.661 178.766 505.647 178.667 502.718 178.066C496.11 176.712 489.671 174.9 482.906 174.353C475.712 173.77 468.587 174.976 461.42 173.608C459.42 173.227 453.957 173.082 452.092 173.713ZM373.691 745.436C375.194 747.699 376.646 749.929 378.441 751.974C385.197 759.671 392.652 766.238 399.75 773.554C405.762 779.751 411.542 787.313 418.635 792.296L425.688 797.701C428.879 799.959 434.653 802.408 438.56 801.829L438.912 801.75C436.441 797.333 432.971 793.44 430.11 789.25C426.895 784.541 423.902 778.111 419.813 774.159C416.144 770.613 410.858 768.529 406.386 766.155L393.19 758.557C386.595 754.53 380.634 748.715 373.691 745.436ZM406.722 485.75C397.449 492.16 387.895 499.234 379.965 507.25C377.276 509.969 374.315 512.945 372.658 516.443C374.678 525.986 375.436 535.032 379.513 544.057C380.171 545.648 380.757 547.741 381.776 549.107L381.823 548.372C382.104 544.564 383.264 541.489 384.32 537.855C388.282 524.224 393.951 511.566 400.369 498.921C402.382 494.956 406.242 490.071 407.251 485.76L406.722 485.75ZM486.59 467.75C483.436 469.247 480.882 471.85 478.31 474.165C470.014 481.63 462.948 490.241 456.081 499C452.218 503.929 447.946 508.437 445.555 514.323C446.165 516.429 446.764 518.228 447.866 520.123L448.833 521.802L449.75 523.306C453.094 521.778 456.319 518.888 459.339 516.75C462.015 514.856 465.475 512.984 467.713 510.628C468.717 509.572 469.218 508.239 469.707 506.89C472.442 499.337 474.565 491.807 478.122 484.532C480.736 479.184 485.218 474.048 486.935 468.312L486.59 467.75ZM595.294 278.57L593.25 279.552C593.16 280.999 594.24 282.59 594.893 283.867C596.728 287.454 598.396 291.205 601.085 294.25C603.379 296.847 605.572 298.671 608.5 300.488C611.235 302.185 614.075 304.09 617.5 303.597C619.399 303.324 622.111 300.237 623.406 298.814C625.801 296.431 627.719 293.997 629.641 291.221C622.686 285.584 614.148 281.486 605.342 279.7C601.861 278.994 598.875 278.29 595.294 278.57ZM417.951 556.775C414.439 558.97 410.838 561.101 407.633 563.737C403.574 567.076 399.86 571.35 396.248 575.166C399.647 580.648 402.726 585.966 407.016 590.815L417.031 601.351C415.489 593.619 415.316 584.594 416.082 576.751C416.744 569.979 418.053 563.62 417.951 556.775ZM561.097 668.869C563.479 675.289 567.243 681.292 570.88 687.091C572.523 689.71 574.532 692.156 575.596 695.085L575.25 695.111C580.02 696.55 584.918 698.351 589.75 699.491C593.662 700.414 597.751 700.667 601.67 701.559C606.283 702.609 611.061 704.342 615.75 704.952L616.176 704.33C611.728 700.777 606.747 698.638 601.806 695.916L589 688.037L571.843 676.662C568.234 674.139 564.942 671.023 561.097 668.869ZM695.453 263.089C701.209 269.839 706.476 276.876 711.506 284.182C714.233 288.142 717.191 292.17 719.35 296.464L731.25 295.497C732.153 294.414 732.116 294.513 731.983 293.093C731.472 287.663 730.25 283.569 725.937 280.052C720.009 275.219 712.088 269.757 705.164 266.575C702.032 265.136 698.686 264.257 695.453 263.089ZM579.522 389.185C574.516 389.883 569.712 390.704 564.845 392.104C554.135 395.185 544.147 399.602 533.867 403.832C528.376 406.09 523.193 407.984 517.9 410.722C515.959 411.726 513.541 412.869 512.01 414.417L525.092 410.422L573.383 398.243C576.275 397.585 579.1 396.288 581.925 395.359C586.598 393.822 591.083 392.65 595.592 390.583C590.038 389.612 585.171 388.911 579.522 389.185ZM580.203 276.22L572.335 276.476C571.299 280.22 574.223 290.26 576.055 293.75C579.668 300.631 587.124 306.615 594.5 308.643C595.875 309.022 597.159 309.166 598.566 309.316L598.75 309.358L606.703 310.046C597.26 305.351 591.696 299.25 587.157 289.817C585.311 285.981 584.067 280.782 583.875 276.538C582.673 275.924 581.502 276.133 580.203 276.22ZM439.265 787.24C443.4 793.283 447.34 799.205 452.716 804.256C454.582 806.009 456.29 807.639 458.75 808.486L459.466 808.741C463.493 810.119 467.736 810.366 471.883 811.172C477.512 812.265 483.198 813.873 488.945 814.164L439.265 787.24ZM472.157 578.25C471.774 587.77 473.449 597.225 475.429 606.5C476.596 611.965 477.603 617.425 479.603 622.671L481.097 616.871L487.102 598.649C483.149 593.826 479.371 588.548 475.846 583.399C474.945 582.083 473.623 578.779 472.157 578.25ZM168.51 618.25L165.666 644.962C165.127 650.698 166.276 657.217 166.89 662.97C167.333 667.121 168.435 670.95 170.3 674.674C171.753 677.576 174.205 680.947 176.25 683.528L177.366 684.359C177.194 681.087 175.874 677.155 175.159 673.902L172.072 656.737C171.816 654.958 171.187 653.315 171.028 651.5C170.489 645.373 170.544 638.647 170.586 632.481C170.611 628.892 171.683 621.868 170.138 618.861C169.506 618.492 169.255 618.149 168.51 618.25ZM747.732 729.253L738.903 729.322L758.497 744.246L761.133 740.991L771.383 730.851L747.732 729.253ZM702.465 690.527L719.561 709C720.53 710.062 722.516 713.146 723.64 713.757C725.488 714.761 729.571 714.959 731.75 715.35L744.905 718.087C745.769 718.264 746.483 718.283 747.359 718.25L702.465 690.527ZM741.094 330.175C739.047 330.732 735.67 332.159 733.656 331.75C733.109 333.053 733.78 334.107 734.293 335.375C735.558 338.501 736.431 341.771 737.416 345C737.833 346.369 738.068 348.245 738.85 349.395L743.2 343.674C747.824 339.454 751.834 334.885 757.431 331.923C752.198 329.457 746.793 329.76 741.094 330.175ZM567.018 369.25C558.009 372.018 548.755 372.464 539.691 374.819L554.719 377.631C562.919 378.381 570.994 380.807 579.234 381.14C576.328 377.604 572.554 371.307 568.75 368.976L567.018 369.25ZM463.796 523.25C460.921 525.253 455.238 528.621 453.65 531.537L459.767 543.338L462.002 548.569C461.922 539.862 463.981 532.073 464.87 523.523L463.796 523.25ZM584.049 840.006L600.352 849.308C603.143 847.76 606.203 846.314 608.751 844.397L612.25 842.213L612.777 841.574L612.25 841.09L611.814 841.291C609.499 842.247 607.153 842.082 604.703 842.043C597.733 841.929 591.059 840.077 584.049 840.006ZM438.969 522.235C437.447 524.583 435.854 526.833 434.947 529.5C434.3 531.403 433.602 533.322 433.204 535.297L434.599 534.661L435.082 534.193C437.169 532.211 439.407 530.685 441.807 529.11L438.969 522.235Z"/>
</svg>
